<?xml version="1.0" standalone="no"?>
<!DOCTYPE svg PUBLIC "-//W3C//DTD SVG 20010904//EN"
 "http://www.w3.org/TR/2001/REC-SVG-20010904/DTD/svg10.dtd">
<svg version="1.0" xmlns="http://www.w3.org/2000/svg"
 width="300.000000pt" height="89.000000pt" viewBox="0 0 300.000000 89.000000"
 preserveAspectRatio="xMidYMid meet">
<metadata>
Created by potrace 1.16, written by Peter Selinger 2001-2019
</metadata>
<g transform="translate(0.000000,89.000000) scale(0.100000,-0.100000)"
fill="#000000" stroke="none">
<path d="M1430 635 c0 -104 2 -125 15 -125 12 0 15 13 15 55 l0 55 60 0 c47 0
60 3 60 15 0 12 -13 15 -60 15 l-60 0 0 40 0 40 70 0 c56 0 70 3 70 15 0 12
-16 15 -85 15 l-85 0 0 -125z"/>
<path d="M1648 685 c-30 -17 -50 -70 -41 -107 10 -41 43 -68 84 -68 51 0 67 8
84 41 24 45 19 87 -14 120 -33 33 -70 37 -113 14z"/>
<path d="M1940 605 c0 -88 1 -95 20 -95 18 0 20 7 20 63 0 49 4 68 18 80 45
41 72 6 72 -89 0 -41 4 -54 15 -54 12 0 15 14 15 63 0 49 4 68 18 80 45 41 72
10 72 -82 0 -48 3 -61 15 -61 22 0 21 137 -1 168 -19 27 -67 29 -93 3 -18 -18
-18 -18 -30 0 -14 23 -58 25 -89 3 -20 -14 -22 -14 -22 0 0 9 -7 16 -15 16
-12 0 -15 -17 -15 -95z"/>
<path d="M2582 688 c-24 -12 -25 -36 -1 -29 8 3 29 5 48 5 26 1 35 -4 42 -21
8 -22 6 -23 -40 -23 -54 0 -81 -20 -81 -61 0 -36 18 -49 65 -49 23 0 46 5 53
12 9 9 12 9 12 0 0 -7 9 -12 20 -12 20 0 21 19 4 124 -9 59 -62 83 -122 54z"/>
<path d="M770 554 c-112 -41 -218 -81 -234 -89 -31 -16 -74 -19 -92 -7 -6 4
-14 19 -17 34 -4 14 -21 40 -38 57 -29 30 -34 31 -119 31 -48 0 -102 3 -119 6
l-31 6 14 -39 c27 -76 84 -191 105 -212 12 -12 34 -21 51 -21 25 0 30 -4 30
-24 0 -61 56 -137 117 -157 44 -14 100 -4 139 26 17 13 33 22 35 20 3 -2 234
-8 514 -14 281 -6 584 -13 674 -16 l164 -6 -7 100 c-5 79 -3 101 7 101 9 0 11
-12 9 -39 -11 -113 93 -204 197 -173 40 13 111 80 111 107 0 11 6 12 31 3 26
-9 29 -14 24 -38 l-6 -27 157 -5 c157 -5 204 -2 204 12 0 4 -13 10 -30 14 -26
5 -30 10 -30 40 0 34 0 34 -52 38 -81 7 -296 85 -340 125 -44 38 -73 47 -134
40 -34 -3 -56 -14 -82 -38 -25 -23 -29 -25 -13 -7 18 21 21 29 10 32 -8 3
-136 6 -285 8 -286 3 -304 6 -304 50 0 15 -5 19 -20 15 -11 -3 -20 -1 -20 3 0
5 8 10 18 12 14 3 12 7 -12 23 -27 18 -30 18 -58 2 -46 -26 -51 -23 -44 33 l7
50 -163 0 -163 -1 -205 -75z m-233 -207 c7 -7 15 -27 19 -44 13 -65 -78 -111
-126 -63 -38 38 -22 103 30 123 20 8 62 -1 77 -16z m1656 -4 c24 -23 22 -77
-5 -103 -38 -35 -100 -21 -118 26 -29 76 61 132 123 77z"/>
</g>
</svg>
